HIERARCHY
ROOT reference
{
  OFFSET 0 0 0
  CHANNELS 6 Xposition Yposition Zposition Zrotation Xrotation Yrotation
  JOINT Hips
  {
    OFFSET 368.823 89.7904 194.012
    CHANNELS 3 Zrotation Xrotation Yrotation
    JOINT RightUpLeg
    {
      OFFSET -9.24587 -1.53924 -0.0496539
      CHANNELS 3 Zrotation Xrotation Yrotation
      JOINT RightLeg
      {
        OFFSET 0.0288962 -41.8853 0.065208
        CHANNELS 3 Zrotation Xrotation Yrotation
        JOINT RightFoot
        {
          OFFSET -0.153961 -42.496 -0.469978
          CHANNELS 3 Zrotation Xrotation Yrotation
          End Site
          {
            OFFSET 0 -7.69 17.5
          }
        }
      }
    }
    JOINT LeftUpLeg
    {
      OFFSET 9.30368 -1.65799 0.0114032
      CHANNELS 3 Zrotation Xrotation Yrotation
      JOINT LeftLeg
      {
        OFFSET 0.0812002 -41.8405 -0.136291
        CHANNELS 3 Zrotation Xrotation Yrotation
        JOINT LeftFoot
        {
          OFFSET 0.408244 -41.1613 0.400562
          CHANNELS 3 Zrotation Xrotation Yrotation
          End Site
          {
            OFFSET 0 -7.69 17.5
          }
        }
      }
    }
    JOINT Spine
    {
      OFFSET 0.0091145 14.2923 0.0603898
      CHANNELS 3 Zrotation Xrotation Yrotation
      JOINT Spine1
      {
        OFFSET 0.0313032 9.72692 0.0269052
        CHANNELS 3 Zrotation Xrotation Yrotation
        JOINT Spine2
        {
          OFFSET 0.0416827 10.1254 -0.000588186
          CHANNELS 3 Zrotation Xrotation Yrotation
          JOINT Spine3
          {
            OFFSET 0.0353017 9.71596 0.00525809
            CHANNELS 3 Zrotation Xrotation Yrotation
            JOINT Neck
            {
              OFFSET 0.0870676 10.3793 0.0454457
              CHANNELS 3 Zrotation Xrotation Yrotation
              JOINT Head
              {
                OFFSET 0.0878806 9.48152 0.0233162
                CHANNELS 3 Zrotation Xrotation Yrotation
                End Site
                {
                  OFFSET 0 15.95 0
                }
              }
            }
            JOINT RightShoulder
            {
              OFFSET -3.16008 6.92912 0.0289115
              CHANNELS 3 Zrotation Xrotation Yrotation
              JOINT RightArm
              {
                OFFSET -12.7589 0.0216905 0.0632467
                CHANNELS 3 Zrotation Xrotation Yrotation
                JOINT RightForeArm
                {
                  OFFSET -26.506 -0.0577999 0.0567862
                  CHANNELS 3 Zrotation Xrotation Yrotation
                  JOINT RightHand
                  {
                    OFFSET -25.9836 -0.0526551 -0.00138994
                    CHANNELS 3 Zrotation Xrotation Yrotation
                    JOINT RightHandThumb1
                    {
                      OFFSET -2.48905 0.190105 3.12053
                      CHANNELS 3 Zrotation Xrotation Yrotation
                      JOINT RightHandThumb2
                      {
                        OFFSET -3.68274 0 0
                        CHANNELS 3 Zrotation Xrotation Yrotation
                        JOINT RightHandThumb3
                        {
                          OFFSET -2.55832 0 0
                          CHANNELS 3 Zrotation Xrotation Yrotation
                          End Site
                          {
                            OFFSET -2.194 0 0
                          }
                        }
                      }
                    }
                    JOINT RightInHandIndex
                    {
                      OFFSET -3.22368 0.508421 1.97842
                      CHANNELS 3 Zrotation Xrotation Yrotation
                      JOINT RightHandIndex1
                      {
                        OFFSET -5.21684 -0.091368 0.999158
                        CHANNELS 3 Zrotation Xrotation Yrotation
                        JOINT RightHandIndex2
                        {
                          OFFSET -3.61937 0 0
                          CHANNELS 3 Zrotation Xrotation Yrotation
                          JOINT RightHandIndex3
                          {
                            OFFSET -2.0521 0 0
                            CHANNELS 3 Zrotation Xrotation Yrotation
                            End Site
                            {
                              OFFSET -1.805 0 0
                            }
                          }
                        }
                      }
                    }
                    JOINT RightInHandMiddle
                    {
                      OFFSET -3.38211 0.517263 0.756737
                      CHANNELS 3 Zrotation Xrotation Yrotation
                      JOINT RightHandMiddle1
                      {
                        OFFSET -5.17411 -0.084 0.313895
                        CHANNELS 3 Zrotation Xrotation Yrotation
                        JOINT RightHandMiddle2
                        {
                          OFFSET -3.94947 0 0
                          CHANNELS 3 Zrotation Xrotation Yrotation
                          JOINT RightHandMiddle3
                          {
                            OFFSET -2.47579 0 0
                            CHANNELS 3 Zrotation Xrotation Yrotation
                            End Site
                            {
                              OFFSET -1.975 0 0
                            }
                          }
                        }
                      }
                    }
                    JOINT RightInHandRing
                    {
                      OFFSET -3.36516 0.537895 -0.128947
                      CHANNELS 3 Zrotation Xrotation Yrotation
                      JOINT RightHandRing1
                      {
                        OFFSET -4.63474 -0.022105 -0.478947
                        CHANNELS 3 Zrotation Xrotation Yrotation
                        JOINT RightHandRing2
                        {
                          OFFSET -3.44238 0 0
                          CHANNELS 3 Zrotation Xrotation Yrotation
                          JOINT RightHandRing3
                          {
                            OFFSET -2.3881 0 0
                            CHANNELS 3 Zrotation Xrotation Yrotation
                            End Site
                            {
                              OFFSET -1.857 0 0
                            }
                          }
                        }
                      }
                    }
                    JOINT RightInHandPinky
                    {
                      OFFSET -3.16105 0.469368 -1.20179
                      CHANNELS 3 Zrotation Xrotation Yrotation
                      JOINT RightHandPinky1
                      {
                        OFFSET -4.14105 -0.022105 -1.09053
                        CHANNELS 3 Zrotation Xrotation Yrotation
                        JOINT RightHandPinky2
                        {
                          OFFSET -2.75653 0 0
                          CHANNELS 3 Zrotation Xrotation Yrotation
                          JOINT RightHandPinky3
                          {
                            OFFSET -1.74189 0 0
                            CHANNELS 3 Zrotation Xrotation Yrotation
                            End Site
                            {
                              OFFSET -1.645 0 0
                            }
                          }
                        }
                      }
                    }
                  }
                }
              }
            }
            JOINT LeftShoulder
            {
              OFFSET 3.24363 6.91883 -0.0263005
              CHANNELS 3 Zrotation Xrotation Yrotation
              JOINT LeftArm
              {
                OFFSET 12.8387 -0.0254922 -0.065819
                CHANNELS 3 Zrotation Xrotation Yrotation
                JOINT LeftForeArm
                {
                  OFFSET 26.503 -0.0679028 -0.0690065
                  CHANNELS 3 Zrotation Xrotation Yrotation
                  JOINT LeftHand
                  {
                    OFFSET 25.9897 -0.0384179 -0.0536179
                    CHANNELS 3 Zrotation Xrotation Yrotation
                    JOINT LeftHandThumb1
                    {
                      OFFSET 2.48905 0.190105 3.12053
                      CHANNELS 3 Zrotation Xrotation Yrotation
                      JOINT LeftHandThumb2
                      {
                        OFFSET 3.68274 0 0
                        CHANNELS 3 Zrotation Xrotation Yrotation
                        JOINT LeftHandThumb3
                        {
                          OFFSET 2.55832 0 0
                          CHANNELS 3 Zrotation Xrotation Yrotation
                          End Site
                          {
                            OFFSET 2.194 0 0
                          }
                        }
                      }
                    }
                    JOINT LeftInHandIndex
                    {
                      OFFSET 3.22368 0.508421 1.97842
                      CHANNELS 3 Zrotation Xrotation Yrotation
                      JOINT LeftHandIndex1
                      {
                        OFFSET 5.21684 -0.091368 0.999158
                        CHANNELS 3 Zrotation Xrotation Yrotation
                        JOINT LeftHandIndex2
                        {
                          OFFSET 3.61937 0 0
                          CHANNELS 3 Zrotation Xrotation Yrotation
                          JOINT LeftHandIndex3
                          {
                            OFFSET 2.0521 0 0
                            CHANNELS 3 Zrotation Xrotation Yrotation
                            End Site
                            {
                              OFFSET 1.805 0 0
                            }
                          }
                        }
                      }
                    }
                    JOINT LeftInHandMiddle
                    {
                      OFFSET 3.38211 0.517263 0.756737
                      CHANNELS 3 Zrotation Xrotation Yrotation
                      JOINT LeftHandMiddle1
                      {
                        OFFSET 5.17411 -0.084 0.313895
                        CHANNELS 3 Zrotation Xrotation Yrotation
                        JOINT LeftHandMiddle2
                        {
                          OFFSET 3.94947 0 0
                          CHANNELS 3 Zrotation Xrotation Yrotation
                          JOINT LeftHandMiddle3
                          {
                            OFFSET 2.47579 0 0
                            CHANNELS 3 Zrotation Xrotation Yrotation
                            End Site
                            {
                              OFFSET 1.975 0 0
                            }
                          }
                        }
                      }
                    }
                    JOINT LeftInHandRing
                    {
                      OFFSET 3.36516 0.537895 -0.128947
                      CHANNELS 3 Zrotation Xrotation Yrotation
                      JOINT LeftHandRing1
                      {
                        OFFSET 4.63474 -0.022105 -0.478947
                        CHANNELS 3 Zrotation Xrotation Yrotation
                        JOINT LeftHandRing2
                        {
                          OFFSET 3.44238 0 0
                          CHANNELS 3 Zrotation Xrotation Yrotation
                          JOINT LeftHandRing3
                          {
                            OFFSET 2.3881 0 0
                            CHANNELS 3 Zrotation Xrotation Yrotation
                            End Site
                            {
                              OFFSET 1.857 0 0
                            }
                          }
                        }
                      }
                    }
                    JOINT LeftInHandPinky
                    {
                      OFFSET 3.16105 0.469368 -1.20179
                      CHANNELS 3 Zrotation Xrotation Yrotation
                      JOINT LeftHandPinky1
                      {
                        OFFSET 4.14105 -0.022105 -1.09053
                        CHANNELS 3 Zrotation Xrotation Yrotation
                        JOINT LeftHandPinky2
                        {
                          OFFSET 2.75653 0 0
                          CHANNELS 3 Zrotation Xrotation Yrotation
                          JOINT LeftHandPinky3
                          {
                            OFFSET 1.74189 0 0
                            CHANNELS 3 Zrotation Xrotation Yrotation
                            End Site
                            {
                              OFFSET 1.645 0 0
                            }
                          }
                        }
                      }
                    }
                  }
                }
              }
            }
          }
        }
      }
    }
  }
}
MOTION
Frames: 2
Frame Time: 0.00833333
7.500000000000000000e+02 0.000000000000000000e+00 0.000000000000000000e+00 0.000000000000000000e+00 0.000000000000000000e+00 0.000000000000000000e+00 -2.842329675718392679e+00 -9.968007492901463706e+00 -1.575887150678772208e+01 1.134595077433196586e+01 1.651216650395371133e+01 1.751293537986667914e+01 -2.384236317705548114e+00 -9.623385814209346023e+00 6.194774431572344753e+00 -1.940444271421530864e+00 3.724211368403314459e+00 9.069112096804079926e+00 7.065186712422371507e+00 1.981159044497903921e+01 1.326849667914638964e+01 -1.336910206503467080e+01 -2.032217285591642941e+00 9.480610974185267992e+00 2.813605184039340124e+00 -6.175393083269462124e+00 4.763506375414043426e+00 -4.654079379137272987e+00 -4.246761350676553803e+00 9.746478089758594976e+00 -1.004628195971768667e+00 -1.554708268914736902e+00 2.526248364418467673e+00 -1.725653093835952223e+00 -2.729394427946236767e+00 3.686921590129950133e+00 7.479056423374624840e-02 -2.229534220259793420e-02 4.171255637984876141e-02 6.438092113822666551e-01 -1.713994532652292069e+00 6.030346919217355328e+00 1.447863939770049235e+00 5.761869884820798760e+00 -3.659573962971799599e+00 -2.819536494505321844e+00 4.484402077094277850e+00 2.871118016091838143e+00 -3.329296312107568667e+01 -1.263856922036188024e+01 -7.163977397674091696e-01 -1.450325380877870884e+01 4.683344861846132190e+00 1.269410627191161112e+01 6.945470798512581645e+00 6.692924908342102519e+00 -1.347896169120889098e+01 0.000000000000000000e+00 0.000000000000000000e+00 0.000000000000000000e+00 4.645889077099343870e-15 -2.446013990887514817e-15 0.000000000000000000e+00 1.720837863475917737e-15 -1.439628916254116556e-15 0.000000000000000000e+00 -5.982457612528629166e-15 -3.178185063117513395e-15 -3.811506707409775103e-16 0.000000000000000000e+00 0.000000000000000000e+00 0.000000000000000000e+00 0.000000000000000000e+00 1.612589432824024758e-16 -3.885098171233643852e-15 0.000000000000000000e+00 2.584715503271548901e-15 -1.945877807058189258e-16 -5.982457612528629166e-15 -3.178185063117513395e-15 -3.811506707409775103e-16 0.000000000000000000e+00 1.302028067160314651e-15 -1.939763065586710988e-15 0.000000000000000000e+00 2.277692343171481668e-15 3.344044692797329312e-15 0.000000000000000000e+00 1.578884212302975048e-15 6.958089249394911701e-16 -5.982457612528629166e-15 -3.178185063117513395e-15 -3.811506707409775103e-16 0.000000000000000000e+00 0.000000000000000000e+00 0.000000000000000000e+00 0.000000000000000000e+00 -9.937575311147948129e-16 7.851335041331261353e-16 0.000000000000000000e+00 1.702852233990956423e-15 -3.191181822051668640e-16 -5.982457612528629166e-15 -3.178185063117513395e-15 -3.811506707409775103e-16 0.000000000000000000e+00 0.000000000000000000e+00 0.000000000000000000e+00 0.000000000000000000e+00 -5.582048559706644440e-16 4.792064970587754922e-15 0.000000000000000000e+00 1.571381258504606057e-16 7.251717873142532154e-16 -6.309701644020894840e+00 4.671454733930754388e-01 -1.269744261836296129e-01 -2.465993735992928926e+00 -7.425704890476687581e+00 -8.598900148310088198e+00 -2.034096285377235702e+01 -1.079710924789996085e+01 -6.581954237449062362e+01 8.361223436455748725e+00 3.156633286714739750e+00 -9.285498220987571827e+00 0.000000000000000000e+00 0.000000000000000000e+00 0.000000000000000000e+00 -4.812463403377819849e-15 -1.102302804301216432e-15 0.000000000000000000e+00 -1.071977694555558268e-15 -2.742433609714763195e-16 0.000000000000000000e+00 1.226677684475333857e-16 -3.215469443458601947e-15 1.795590763200562438e-15 0.000000000000000000e+00 0.000000000000000000e+00 0.000000000000000000e+00 0.000000000000000000e+00 -7.029738452751085946e-16 2.821288568323896978e-16 0.000000000000000000e+00 -2.001709814050970328e-15 -1.655278305408235379e-15 1.226677684475333857e-16 -3.215469443458601947e-15 1.795590763200562438e-15 0.000000000000000000e+00 3.410515743906525215e-15 -1.392183193337675905e-15 0.000000000000000000e+00 -1.700689997816582682e-16 -2.148568939766525490e-15 0.000000000000000000e+00 -2.489332786985049798e-15 -1.506301916805072403e-15 1.226677684475333857e-16 -3.215469443458601947e-15 1.795590763200562438e-15 0.000000000000000000e+00 0.000000000000000000e+00 0.000000000000000000e+00 0.000000000000000000e+00 9.970955910270002397e-16 -2.812511303301842581e-15 0.000000000000000000e+00 -9.439239237185237066e-16 -2.350146069706830943e-15 1.226677684475333857e-16 -3.215469443458601947e-15 1.795590763200562438e-15 0.000000000000000000e+00 0.000000000000000000e+00 0.000000000000000000e+00 0.000000000000000000e+00 6.768204053905561075e-16 5.395599704054953517e-16 0.000000000000000000e+00 2.124490989205199519e-15 6.263162066246192776e-16
7.500000000000000000e+02 0.000000000000000000e+00 0.000000000000000000e+00 0.000000000000000000e+00 0.000000000000000000e+00 0.000000000000000000e+00 -2.596983747423160960e+00 -1.002558894937252276e+01 -1.627847060718312022e+01 1.204133155855748960e+01 1.619051025852556336e+01 1.812001132111697643e+01 -2.460634742259080632e+00 -9.669868212022525000e+00 6.306653228891788032e+00 -2.030199997741571671e+00 4.006970437585785305e+00 9.340413620842809905e+00 7.811390811203936302e+00 1.975584562472451111e+01 1.388931264184383352e+01 -1.377330127785423564e+01 -1.991915696273123482e+00 9.702950594949109941e+00 2.900105197403806567e+00 -6.223058209695415677e+00 5.000743968838463616e+00 -4.748514427480076350e+00 -4.405043869730425499e+00 9.615500236774147780e+00 -1.033399900632522517e+00 -1.591526340428027764e+00 2.486417469283741966e+00 -1.770615704761064890e+00 -2.786113194269280502e+00 3.615149406237863960e+00 6.634448341548954131e-02 -3.376971053276848350e-02 8.347428096436033951e-02 6.164184909827973291e-01 -1.771287630484542630e+00 6.210310758630862793e+00 1.261951315068890800e+00 5.640803724736794145e+00 -2.979868547750809782e+00 -2.741694449096788944e+00 4.681721514568628173e+00 2.747243822186276940e+00 -3.297979164121638007e+01 -1.298925422955366926e+01 -5.006571267848243245e-01 -1.444391070902530139e+01 4.387859018906840269e+00 1.364541429834719821e+01 7.100924620814925703e+00 6.873895428347159609e+00 -1.333568696786502450e+01 0.000000000000000000e+00 0.000000000000000000e+00 0.000000000000000000e+00 4.778545542858579810e-15 -2.557340398261781860e-15 0.000000000000000000e+00 1.959041348766035503e-15 -1.600420025372002029e-15 0.000000000000000000e+00 -6.245851332481589240e-15 -3.338843914891712394e-15 1.972582029855462442e-17 0.000000000000000000e+00 0.000000000000000000e+00 0.000000000000000000e+00 0.000000000000000000e+00 2.096486716128172042e-16 -3.982018598840724943e-15 0.000000000000000000e+00 2.383466926710748032e-15 -3.692912100071996480e-16 -6.245851332481589240e-15 -3.338843914891712394e-15 1.972582029855462442e-17 0.000000000000000000e+00 1.321065438498891197e-15 -2.214729002201100781e-15 0.000000000000000000e+00 2.376333361151818852e-15 3.245415965448015531e-15 0.000000000000000000e+00 1.370694093310436888e-15 6.578492323746012611e-16 -6.245851332481589240e-15 -3.338843914891712394e-15 1.972582029855462442e-17 0.000000000000000000e+00 0.000000000000000000e+00 0.000000000000000000e+00 0.000000000000000000e+00 -1.043096189572966345e-15 6.882808562690802356e-16 0.000000000000000000e+00 1.559242894807628125e-15 -4.141649197745150168e-16 -6.245851332481589240e-15 -3.338843914891712394e-15 1.972582029855462442e-17 0.000000000000000000e+00 0.000000000000000000e+00 0.000000000000000000e+00 0.000000000000000000e+00 -4.964153077528700980e-16 4.772628033599592790e-15 0.000000000000000000e+00 1.009171714921565705e-16 8.527526577740506897e-16 -6.400432454719661379e+00 5.918496574861343840e-01 -2.152799637259190380e-01 -1.772777355305108493e+00 -7.487938217950313557e+00 -9.109280047653054879e+00 -1.982268379377513412e+01 -1.044874067154418285e+01 -6.569085214759451219e+01 8.413505912693292288e+00 3.272551275334329546e+00 -9.295896379052500436e+00 0.000000000000000000e+00 0.000000000000000000e+00 0.000000000000000000e+00 -4.772007801665882946e-15 -1.133716714790253925e-15 0.000000000000000000e+00 -9.774389676569787364e-16 -3.857945962787788924e-16 0.000000000000000000e+00 6.992118350159071495e-17 -3.261379431573827855e-15 1.872159274341698501e-15 0.000000000000000000e+00 0.000000000000000000e+00 0.000000000000000000e+00 0.000000000000000000e+00 -8.916730754008996940e-16 4.888504677342100026e-16 0.000000000000000000e+00 -2.009873852860525364e-15 -1.694885111350594466e-15 6.992118350159071495e-17 -3.261379431573827855e-15 1.872159274341698501e-15 0.000000000000000000e+00 3.450966312558120924e-15 -1.387833849157210403e-15 0.000000000000000000e+00 -2.662013300261096924e-16 -2.121240565265614228e-15 0.000000000000000000e+00 -2.462044298422464836e-15 -1.582380972070528652e-15 6.992118350159071495e-17 -3.261379431573827855e-15 1.872159274341698501e-15 0.000000000000000000e+00 0.000000000000000000e+00 0.000000000000000000e+00 0.000000000000000000e+00 1.117321921339293561e-15 -2.833303492810889956e-15 0.000000000000000000e+00 -9.804361710238309275e-16 -2.305258901546132381e-15 6.992118350159071495e-17 -3.261379431573827855e-15 1.872159274341698501e-15 0.000000000000000000e+00 0.000000000000000000e+00 0.000000000000000000e+00 0.000000000000000000e+00 7.845414042822684814e-16 5.243358055840792431e-16 0.000000000000000000e+00 2.068176426931524611e-15 7.564710989573477927e-16
